<svg width="64" height="16" viewBox="0 0 64 16" fill="none" xmlns="http://www.w3.org/2000/svg">
<path d="M12.4295 3.69444V12.25C12.4295 12.4167 12.3711 12.5556 12.2542 12.6667C12.1374 12.7778 11.9962 12.8333 11.8306 12.8333H9.71257C9.55676 12.8333 9.41556 12.7731 9.28897 12.6528C9.16237 12.5324 9.09907 12.3981 9.09907 12.25V9.02778H5.34504V12.25C5.34504 12.3981 5.28174 12.5324 5.15514 12.6528C5.03829 12.7731 4.89708 12.8333 4.73154 12.8333H2.6135C2.45769 12.8333 2.31649 12.7731 2.18989 12.6528C2.0633 12.5324 2 12.3981 2 12.25V3.69444C2 3.53704 2.05843 3.40278 2.17529 3.29167C2.29214 3.18055 2.43821 3.125 2.6135 3.125H4.73154C4.90682 3.125 5.05289 3.18055 5.16975 3.29167C5.28661 3.40278 5.34504 3.53704 5.34504 3.69444V6.63889H9.09907V3.69444C9.09907 3.53704 9.1575 3.40278 9.27436 3.29167C9.39122 3.18055 9.53729 3.125 9.71257 3.125H11.8306C12.0156 3.125 12.1617 3.17593 12.2688 3.27778C12.3759 3.37963 12.4295 3.51852 12.4295 3.69444Z" fill="url(#paint0_linear)"/>
<path d="M14.2552 8.36111L14.2406 3.52778C14.2406 3.25 14.4061 3.11111 14.7372 3.11111H16.6507C16.8455 3.11111 16.9964 3.14815 17.1036 3.22222C17.2107 3.2963 17.2642 3.39815 17.2642 3.52778L17.3227 8.05556C17.3324 8.65741 17.5028 9.13426 17.8339 9.48611C18.1748 9.8287 18.6324 10 19.207 10C20.3366 10 20.9014 9.38889 20.9014 8.16667L20.9306 3.55556C20.9306 3.43518 20.9891 3.33333 21.1059 3.25C21.2325 3.15741 21.3786 3.11111 21.5441 3.11111H23.4869C23.6719 3.11111 23.8131 3.15278 23.9105 3.23611C24.0176 3.31018 24.0663 3.41667 24.0566 3.55556V5.61111C24.0566 6.88889 24.0566 7.68518 24.0566 8C24.0663 8.31481 24.0712 8.48148 24.0712 8.5C24.0809 9.25 23.9446 9.96296 23.6622 10.6389C23.3895 11.3056 22.888 11.8657 22.1576 12.3194C21.437 12.7639 20.4632 12.9861 19.2362 12.9861C18.1163 12.9861 17.1815 12.7685 16.4316 12.3333C15.6915 11.8981 15.1413 11.3333 14.781 10.6389C14.4305 9.93519 14.2552 9.17593 14.2552 8.36111Z" fill="url(#paint1_linear)"/>
<path d="M25.8793 12.5972V3.375C25.8793 3.27315 25.928 3.18981 26.0253 3.125C26.1227 3.06018 26.2493 3.02778 26.4051 3.02778H28.5524L29.5895 3C30.7094 3 31.5809 3.125 32.2042 3.375C32.8371 3.625 33.2656 3.96296 33.4896 4.38889C33.7233 4.81481 33.8402 5.3287 33.8402 5.93056C33.8402 6.56019 33.66 7.10648 33.2997 7.56944C33.8158 7.83796 34.181 8.15278 34.3952 8.51389C34.6192 8.86574 34.7312 9.32407 34.7312 9.88889C34.7312 10.037 34.7263 10.1528 34.7166 10.2361C34.6874 10.7361 34.5754 11.1852 34.3806 11.5833C34.1859 11.9722 33.7963 12.3056 33.2121 12.5833C32.6278 12.8611 31.7903 13 30.6996 13H26.4928C26.3175 13 26.1714 12.9583 26.0545 12.875C25.9377 12.8009 25.8793 12.7083 25.8793 12.5972ZM30.3198 10.9028C30.7483 10.8843 31.0697 10.7824 31.2839 10.5972C31.4981 10.412 31.6053 10.162 31.6053 9.84722C31.6053 9.53241 31.4884 9.28704 31.2547 9.11111C31.021 8.92593 30.6217 8.8287 30.0569 8.81944H28.9322C28.7861 8.81944 28.713 8.85185 28.713 8.91667V10.7778C28.713 10.8148 28.7325 10.8472 28.7715 10.875C28.8104 10.8935 28.864 10.9028 28.9322 10.9028H30.3198ZM29.9547 6.91667C30.2955 6.90741 30.5536 6.81944 30.7288 6.65278C30.9139 6.48611 31.0064 6.27778 31.0064 6.02778C31.0064 5.44444 30.5974 5.13426 29.7794 5.09722H28.8445C28.8056 5.09722 28.7666 5.11111 28.7277 5.13889C28.6984 5.16667 28.6838 5.19907 28.6838 5.23611V6.80556C28.6838 6.84259 28.6984 6.87037 28.7277 6.88889C28.7569 6.90741 28.7958 6.91667 28.8445 6.91667H29.9547Z" fill="url(#paint2_linear)"/>
<path d="M36.3422 12.2222V3.75C36.3422 3.57407 36.4006 3.42593 36.5175 3.30555C36.6343 3.17593 36.7902 3.11111 36.9849 3.11111H38.9861C39.1614 3.11111 39.3075 3.17593 39.4243 3.30555C39.5509 3.42593 39.6142 3.57407 39.6142 3.75V12.2222C39.6142 12.4167 39.5509 12.5741 39.4243 12.6944C39.3075 12.8056 39.1614 12.8611 38.9861 12.8611H36.9849C36.7902 12.8611 36.6343 12.8056 36.5175 12.6944C36.4006 12.5741 36.3422 12.4167 36.3422 12.2222Z" fill="url(#paint3_linear)"/>
<path d="M49.8035 3.81944V5.06944C49.8035 5.23611 49.7402 5.38426 49.6136 5.51389C49.4967 5.64352 49.3604 5.70833 49.2046 5.70833H44.9393V6.875H49.0001C49.1559 6.875 49.2922 6.93056 49.4091 7.04167C49.526 7.15278 49.5844 7.30093 49.5844 7.48611V8.73611C49.5844 8.90278 49.526 9.05093 49.4091 9.18056C49.2922 9.31019 49.1559 9.375 49.0001 9.375H44.9393V12.1944C44.9393 12.3611 44.876 12.5093 44.7494 12.6389C44.6228 12.7685 44.4816 12.8333 44.3258 12.8333H42.4123C42.2467 12.8333 42.1007 12.7685 41.9741 12.6389C41.8572 12.5093 41.7988 12.3611 41.7988 12.1944V3.80556C41.7988 3.62963 41.8572 3.48611 41.9741 3.375C42.0909 3.26389 42.237 3.20833 42.4123 3.20833H49.2046C49.3604 3.20833 49.4967 3.26852 49.6136 3.38889C49.7402 3.5 49.8035 3.64352 49.8035 3.81944Z" fill="url(#paint4_linear)"/>
<path d="M54.9009 12.2222L54.9301 7.88889L51.366 3.80556C51.2978 3.73148 51.2637 3.64815 51.2637 3.55556C51.2637 3.44444 51.3076 3.34722 51.3952 3.26389C51.4926 3.18056 51.6094 3.13426 51.7458 3.125L54.6818 3.13889C54.7597 3.13889 54.8376 3.15278 54.9155 3.18055C55.0032 3.20833 55.0713 3.24537 55.12 3.29167L56.6684 5.20833L58.1583 3.29167C58.1973 3.24537 58.2606 3.20833 58.3482 3.18055C58.4359 3.15278 58.5186 3.13889 58.5965 3.13889L61.5326 3.125C61.6689 3.13426 61.7809 3.18056 61.8685 3.26389C61.9562 3.34722 62 3.44444 62 3.55556C62 3.63889 61.9708 3.72222 61.9124 3.80556L58.4212 7.875L58.3774 12.2222C58.3774 12.3889 58.3093 12.5324 58.1729 12.6528C58.0463 12.7731 57.9003 12.8333 57.7347 12.8333H55.5436C55.3781 12.8333 55.2272 12.7731 55.0908 12.6528C54.9642 12.5324 54.9009 12.3889 54.9009 12.2222Z" fill="url(#paint5_linear)"/>
<defs>
<linearGradient id="paint0_linear" x1="2.34083" y1="8.2037" x2="61.9867" y2="8.2037" gradientUnits="userSpaceOnUse">
<stop stop-color="#2193B0"/>
<stop offset="1" stop-color="#6DD5ED"/>
</linearGradient>
<linearGradient id="paint1_linear" x1="2.34083" y1="8.2037" x2="61.9867" y2="8.2037" gradientUnits="userSpaceOnUse">
<stop stop-color="#2193B0"/>
<stop offset="1" stop-color="#6DD5ED"/>
</linearGradient>
<linearGradient id="paint2_linear" x1="2.34083" y1="8.2037" x2="61.9867" y2="8.2037" gradientUnits="userSpaceOnUse">
<stop stop-color="#2193B0"/>
<stop offset="1" stop-color="#6DD5ED"/>
</linearGradient>
<linearGradient id="paint3_linear" x1="2.34083" y1="8.2037" x2="61.9867" y2="8.2037" gradientUnits="userSpaceOnUse">
<stop stop-color="#2193B0"/>
<stop offset="1" stop-color="#6DD5ED"/>
</linearGradient>
<linearGradient id="paint4_linear" x1="2.34083" y1="8.2037" x2="61.9867" y2="8.2037" gradientUnits="userSpaceOnUse">
<stop stop-color="#2193B0"/>
<stop offset="1" stop-color="#6DD5ED"/>
</linearGradient>
<linearGradient id="paint5_linear" x1="2.34083" y1="8.2037" x2="61.9867" y2="8.2037" gradientUnits="userSpaceOnUse">
<stop stop-color="#2193B0"/>
<stop offset="1" stop-color="#6DD5ED"/>
</linearGradient>
</defs>
</svg>
