<svg width="60" height="10" viewBox="0 0 60 10" fill="none" xmlns="http://www.w3.org/2000/svg">
<path d="M10.4295 0.694444V9.25C10.4295 9.41667 10.3711 9.55556 10.2542 9.66667C10.1374 9.77778 9.99616 9.83333 9.83061 9.83333H7.71257C7.55676 9.83333 7.41556 9.77315 7.28897 9.65278C7.16237 9.53241 7.09907 9.39815 7.09907 9.25V6.02778H3.34504V9.25C3.34504 9.39815 3.28174 9.53241 3.15514 9.65278C3.03829 9.77315 2.89708 9.83333 2.73154 9.83333H0.6135C0.457691 9.83333 0.316488 9.77315 0.189893 9.65278C0.0632977 9.53241 0 9.39815 0 9.25V0.694444C0 0.537037 0.0584286 0.402778 0.175286 0.291666C0.292143 0.180555 0.438215 0.124999 0.6135 0.124999H2.73154C2.90682 0.124999 3.05289 0.180555 3.16975 0.291666C3.28661 0.402778 3.34504 0.537037 3.34504 0.694444V3.63889H7.09907V0.694444C7.09907 0.537037 7.1575 0.402778 7.27436 0.291666C7.39122 0.180555 7.53729 0.124999 7.71257 0.124999H9.83061C10.0156 0.124999 10.1617 0.175925 10.2688 0.277778C10.3759 0.379629 10.4295 0.518518 10.4295 0.694444Z" fill="url(#paint0_linear)"/>
<path d="M12.2552 5.36111L12.2406 0.527778C12.2406 0.25 12.4061 0.111111 12.7372 0.111111H14.6507C14.8455 0.111111 14.9964 0.148148 15.1036 0.222222C15.2107 0.296296 15.2642 0.398148 15.2642 0.527778L15.3227 5.05556C15.3324 5.65741 15.5028 6.13426 15.8339 6.48611C16.1748 6.8287 16.6324 7 17.207 7C18.3366 7 18.9014 6.38889 18.9014 5.16667L18.9306 0.555555C18.9306 0.435185 18.9891 0.333333 19.1059 0.249999C19.2325 0.157407 19.3786 0.111111 19.5441 0.111111H21.4869C21.6719 0.111111 21.8131 0.152777 21.9105 0.236111C22.0176 0.310185 22.0663 0.416666 22.0566 0.555555V2.61111C22.0566 3.88889 22.0566 4.68518 22.0566 5C22.0663 5.31481 22.0712 5.48148 22.0712 5.5C22.0809 6.25 21.9446 6.96296 21.6622 7.63889C21.3895 8.30556 20.888 8.86574 20.1576 9.31944C19.437 9.76389 18.4632 9.98611 17.2362 9.98611C16.1163 9.98611 15.1815 9.76852 14.4316 9.33333C13.6915 8.89815 13.1413 8.33333 12.781 7.63889C12.4305 6.93518 12.2552 6.17593 12.2552 5.36111Z" fill="url(#paint1_linear)"/>
<path d="M23.8793 9.59722V0.374999C23.8793 0.273148 23.928 0.189814 24.0253 0.124999C24.1227 0.0601847 24.2493 0.0277774 24.4051 0.0277774H26.5524L27.5895 0C28.7094 0 29.5809 0.125 30.2042 0.374999C30.8371 0.624999 31.2656 0.962962 31.4896 1.38889C31.7233 1.81481 31.8402 2.3287 31.8402 2.93056C31.8402 3.56019 31.66 4.10648 31.2997 4.56944C31.8158 4.83796 32.181 5.15278 32.3952 5.51389C32.6192 5.86574 32.7312 6.32407 32.7312 6.88889C32.7312 7.03704 32.7263 7.15278 32.7166 7.23611C32.6874 7.73611 32.5754 8.18519 32.3806 8.58333C32.1859 8.97222 31.7963 9.30556 31.212 9.58333C30.6278 9.86111 29.7903 10 28.6996 10H24.4928C24.3175 10 24.1714 9.95833 24.0545 9.875C23.9377 9.80093 23.8793 9.70833 23.8793 9.59722ZM28.3198 7.90278C28.7483 7.88426 29.0697 7.78241 29.2839 7.59722C29.4981 7.41204 29.6053 7.16204 29.6053 6.84722C29.6053 6.53241 29.4884 6.28704 29.2547 6.11111C29.021 5.92593 28.6217 5.8287 28.0569 5.81944H26.9322C26.7861 5.81944 26.713 5.85185 26.713 5.91667V7.77778C26.713 7.81482 26.7325 7.84722 26.7715 7.875C26.8104 7.89352 26.864 7.90278 26.9322 7.90278H28.3198ZM27.9547 3.91667C28.2955 3.90741 28.5536 3.81944 28.7288 3.65278C28.9139 3.48611 29.0064 3.27778 29.0064 3.02778C29.0064 2.44444 28.5974 2.13426 27.7794 2.09722H26.8445C26.8056 2.09722 26.7666 2.11111 26.7277 2.13889C26.6984 2.16667 26.6838 2.19907 26.6838 2.23611V3.80556C26.6838 3.84259 26.6984 3.87037 26.7277 3.88889C26.7569 3.90741 26.7958 3.91667 26.8445 3.91667H27.9547Z" fill="url(#paint2_linear)"/>
<path d="M34.3422 9.22222V0.749999C34.3422 0.574074 34.4006 0.425925 34.5175 0.305555C34.6343 0.175925 34.7902 0.111111 34.9849 0.111111H36.9861C37.1614 0.111111 37.3075 0.175925 37.4243 0.305555C37.5509 0.425925 37.6142 0.574074 37.6142 0.749999V9.22222C37.6142 9.41667 37.5509 9.57407 37.4243 9.69444C37.3075 9.80556 37.1614 9.86111 36.9861 9.86111H34.9849C34.7902 9.86111 34.6343 9.80556 34.5175 9.69444C34.4006 9.57407 34.3422 9.41667 34.3422 9.22222Z" fill="url(#paint3_linear)"/>
<path d="M47.8035 0.819444V2.06944C47.8035 2.23611 47.7402 2.38426 47.6136 2.51389C47.4967 2.64352 47.3604 2.70833 47.2046 2.70833H42.9393V3.875H47.0001C47.1559 3.875 47.2922 3.93056 47.4091 4.04167C47.526 4.15278 47.5844 4.30093 47.5844 4.48611V5.73611C47.5844 5.90278 47.526 6.05093 47.4091 6.18056C47.2922 6.31019 47.1559 6.375 47.0001 6.375H42.9393V9.19444C42.9393 9.36111 42.876 9.50926 42.7494 9.63889C42.6228 9.76852 42.4816 9.83333 42.3258 9.83333H40.4123C40.2467 9.83333 40.1007 9.76852 39.9741 9.63889C39.8572 9.50926 39.7988 9.36111 39.7988 9.19444V0.805555C39.7988 0.629629 39.8572 0.486111 39.9741 0.374999C40.0909 0.263889 40.237 0.208333 40.4123 0.208333H47.2046C47.3604 0.208333 47.4967 0.268518 47.6136 0.388889C47.7402 0.5 47.8035 0.643518 47.8035 0.819444Z" fill="url(#paint4_linear)"/>
<path d="M52.9009 9.22222L52.9301 4.88889L49.366 0.805555C49.2978 0.731481 49.2637 0.648148 49.2637 0.555555C49.2637 0.444444 49.3076 0.347222 49.3952 0.263889C49.4926 0.180555 49.6094 0.134259 49.7458 0.124999L52.6818 0.138889C52.7597 0.138889 52.8376 0.152777 52.9155 0.180555C53.0032 0.208333 53.0713 0.24537 53.12 0.291666L54.6684 2.20833L56.1583 0.291666C56.1973 0.24537 56.2606 0.208333 56.3482 0.180555C56.4359 0.152777 56.5186 0.138889 56.5965 0.138889L59.5326 0.124999C59.6689 0.134259 59.7809 0.180555 59.8685 0.263889C59.9562 0.347222 60 0.444444 60 0.555555C60 0.638888 59.9708 0.722222 59.9124 0.805555L56.4212 4.875L56.3774 9.22222C56.3774 9.38889 56.3093 9.53241 56.1729 9.65278C56.0463 9.77315 55.9003 9.83333 55.7347 9.83333H53.5436C53.3781 9.83333 53.2271 9.77315 53.0908 9.65278C52.9642 9.53241 52.9009 9.38889 52.9009 9.22222Z" fill="url(#paint5_linear)"/>
<defs>
<linearGradient id="paint0_linear" x1="0.340832" y1="5.2037" x2="59.9867" y2="5.2037" gradientUnits="userSpaceOnUse">
<stop stop-color="#2193B0"/>
<stop offset="1" stop-color="#6DD5ED"/>
</linearGradient>
<linearGradient id="paint1_linear" x1="0.340832" y1="5.2037" x2="59.9867" y2="5.2037" gradientUnits="userSpaceOnUse">
<stop stop-color="#2193B0"/>
<stop offset="1" stop-color="#6DD5ED"/>
</linearGradient>
<linearGradient id="paint2_linear" x1="0.340832" y1="5.2037" x2="59.9867" y2="5.2037" gradientUnits="userSpaceOnUse">
<stop stop-color="#2193B0"/>
<stop offset="1" stop-color="#6DD5ED"/>
</linearGradient>
<linearGradient id="paint3_linear" x1="0.340832" y1="5.2037" x2="59.9867" y2="5.2037" gradientUnits="userSpaceOnUse">
<stop stop-color="#2193B0"/>
<stop offset="1" stop-color="#6DD5ED"/>
</linearGradient>
<linearGradient id="paint4_linear" x1="0.340832" y1="5.2037" x2="59.9867" y2="5.2037" gradientUnits="userSpaceOnUse">
<stop stop-color="#2193B0"/>
<stop offset="1" stop-color="#6DD5ED"/>
</linearGradient>
<linearGradient id="paint5_linear" x1="0.340832" y1="5.2037" x2="59.9867" y2="5.2037" gradientUnits="userSpaceOnUse">
<stop stop-color="#2193B0"/>
<stop offset="1" stop-color="#6DD5ED"/>
</linearGradient>
</defs>
</svg>
